<?xml version="1.0" encoding="utf-8"?>
<!-- Generator: Adobe Illustrator 27.0.0, SVG Export Plug-In . SVG Version: 6.00 Build 0)  -->
<svg version="1.1" id="Layer_1" xmlns="http://www.w3.org/2000/svg" xmlns:xlink="http://www.w3.org/1999/xlink" x="0px" y="0px"
	 viewBox="0 0 432 432" style="enable-background:new 0 0 432 432;" xml:space="preserve">
<style type="text/css">
	.st0{clip-path:url(#SVGID_00000165219412188842173690000003187983910056786082_);fill:#B1D67D;}
	.st1{clip-path:url(#SVGID_00000165219412188842173690000003187983910056786082_);fill:#86C878;}
	.st2{fill:#DAF0F6;}
	.st3{fill:#EEF8FB;}
	.st4{clip-path:url(#SVGID_00000048469210625047048360000012474002590879477892_);fill:#ADC9EA;}
	.st5{clip-path:url(#SVGID_00000048469210625047048360000012474002590879477892_);fill:#EDC5DD;}
	.st6{clip-path:url(#SVGID_00000048469210625047048360000012474002590879477892_);fill:#DDD0E7;}
	.st7{clip-path:url(#SVGID_00000048469210625047048360000012474002590879477892_);fill:#C5B5D9;}
	.st8{clip-path:url(#SVGID_00000048469210625047048360000012474002590879477892_);fill:#ABA6D2;}
	.st9{clip-path:url(#SVGID_00000147192944551510066870000000938672805771641218_);fill:#FEE5D5;}
	.st10{clip-path:url(#SVGID_00000147192944551510066870000000938672805771641218_);fill:#F9C7D6;}
	.st11{clip-path:url(#SVGID_00000147192944551510066870000000938672805771641218_);fill:#F494B4;}
	.st12{fill:#FCE8F1;}
	.st13{clip-path:url(#SVGID_00000058584017438968764790000001854670996138112148_);fill:#D7EFF3;}
	.st14{clip-path:url(#SVGID_00000058584017438968764790000001854670996138112148_);fill:#919ACD;}
	.st15{clip-path:url(#SVGID_00000058584017438968764790000001854670996138112148_);fill:#6568B0;}
	.st16{clip-path:url(#SVGID_00000058584017438968764790000001854670996138112148_);fill:#BFB0D6;}
	.st17{opacity:0.27;clip-path:url(#SVGID_00000058584017438968764790000001854670996138112148_);fill:#7F71B4;}
	.st18{clip-path:url(#SVGID_00000069385885289844432030000005325533334069319590_);fill:#FEF6AA;}
	.st19{clip-path:url(#SVGID_00000069385885289844432030000005325533334069319590_);fill:#FEE96C;}
	.st20{clip-path:url(#SVGID_00000069385885289844432030000005325533334069319590_);fill:#F7EC25;}
	.st21{fill:none;stroke:#FBBB1C;stroke-width:14;stroke-miterlimit:10;}
	.st22{fill:#91B4DF;stroke:#DAEEE7;stroke-width:15.4458;stroke-miterlimit:10;}
	.st23{fill:#A6C0E4;}
	.st24{fill:#BCE4EA;}
	.st25{fill:url(#SVGID_00000072255504313675972430000000548678601681810328_);stroke:#8C236C;stroke-width:3;stroke-miterlimit:10;}
	.st26{fill:none;stroke:#8C236C;stroke-width:3;stroke-miterlimit:10;}
	.st27{fill:#FDF9D2;stroke:#FCF6AF;stroke-width:0.9238;stroke-miterlimit:10;}
	.st28{fill:#B6DA9D;stroke:#BDE2D6;stroke-width:2.7715;stroke-miterlimit:10;}
	.st29{fill:#DFF2F3;}
	.st30{fill:#F3F7E2;}
	.st31{fill:#FFF7B6;stroke:#FCF6AF;stroke-miterlimit:10;}
	.st32{fill:#F9C2D2;}
	.st33{fill:#FCE2EB;}
</style>
<g>
	<defs>
		<circle id="SVGID_1_" cx="216" cy="216" r="184.1"/>
	</defs>
	<clipPath id="SVGID_00000177474654303840605850000017700554591657207196_">
		<use xlink:href="#SVGID_1_"  style="overflow:visible;"/>
	</clipPath>
	
		<circle style="clip-path:url(#SVGID_00000177474654303840605850000017700554591657207196_);fill:#B1D67D;" cx="216" cy="216" r="184.1"/>
	<path style="clip-path:url(#SVGID_00000177474654303840605850000017700554591657207196_);fill:#86C878;" d="M308.7,121.3H149.8
		c-6.6,0-12-5.4-12-12v-12c0-6.6,5.4-12,12-12h158.9c6.6,0,12,5.4,12,12v12C320.7,115.9,315.3,121.3,308.7,121.3z"/>
	<path style="clip-path:url(#SVGID_00000177474654303840605850000017700554591657207196_);fill:#86C878;" d="M39.6,420.1h145.9
		c6.6,0,12-5.4,12-12V28.2c0-6.6-5.4-12-12-12H39.6c-6.6,0-12,5.4-12,12v379.9C27.6,414.7,33,420.1,39.6,420.1z"/>
	<path style="clip-path:url(#SVGID_00000177474654303840605850000017700554591657207196_);fill:#86C878;" d="M356.2,177.1H197.3
		c-6.6,0-12-5.4-12-12v-12c0-6.6,5.4-12,12-12h158.9c6.6,0,12,5.4,12,12v12C368.2,171.7,362.8,177.1,356.2,177.1z"/>
	<path style="clip-path:url(#SVGID_00000177474654303840605850000017700554591657207196_);fill:#86C878;" d="M428.6,356.6H269.7
		c-6.6,0-12-5.4-12-12v-12c0-6.6,5.4-12,12-12h158.9c6.6,0,12,5.4,12,12v12C440.6,351.2,435.2,356.6,428.6,356.6z"/>
</g>
<circle class="st2" cx="668" cy="216" r="209"/>
<circle class="st3" cx="668" cy="216" r="174.2"/>
<g>
	<defs>
		<circle id="SVGID_00000122698831081973624170000009345450301226588313_" cx="668" cy="216" r="143.5"/>
	</defs>
	<clipPath id="SVGID_00000157296157045885178790000017158303594562170287_">
		<use xlink:href="#SVGID_00000122698831081973624170000009345450301226588313_"  style="overflow:visible;"/>
	</clipPath>
	
		<circle style="clip-path:url(#SVGID_00000157296157045885178790000017158303594562170287_);fill:#ADC9EA;" cx="668.3" cy="216.4" r="143.5"/>
	<path style="clip-path:url(#SVGID_00000157296157045885178790000017158303594562170287_);fill:#EDC5DD;" d="M623,117.7h180.7
		c6.6,0,12,5.4,12,12v8.1c0,6.6-5.4,12-12,12H623c-6.6,0-12-5.4-12-12v-8.1C611,123.1,616.4,117.7,623,117.7z"/>
	<path style="clip-path:url(#SVGID_00000157296157045885178790000017158303594562170287_);fill:#DDD0E7;" d="M536.8,158.8h273.7
		c6.6,0,12,5.4,12,12v8.1c0,6.6-5.4,12-12,12H536.8c-6.6,0-12-5.4-12-12v-8.1C524.8,164.2,530.2,158.8,536.8,158.8z"/>
	<path style="clip-path:url(#SVGID_00000157296157045885178790000017158303594562170287_);fill:#C5B5D9;" d="M692.1,303.9H536.8
		c-6.6,0-12-5.4-12-12V283c0-6.6,5.4-12,12-12h155.3c6.6,0,12,5.4,12,12v8.9C704.1,298.5,698.7,303.9,692.1,303.9z"/>
	<path style="clip-path:url(#SVGID_00000157296157045885178790000017158303594562170287_);fill:#ABA6D2;" d="M766,344.8H556.6
		c-6.6,0-12-5.4-12-12v-8.9c0-6.6,5.4-12,12-12H766c6.6,0,12,5.4,12,12v8.9C778,339.4,772.6,344.8,766,344.8z"/>
</g>
<g>
	<defs>
		<circle id="SVGID_00000139263479178078251200000017760653653243936683_" cx="1131.9" cy="207.4" r="165.6"/>
	</defs>
	<clipPath id="SVGID_00000105411822055001136680000010593978631010634123_">
		<use xlink:href="#SVGID_00000139263479178078251200000017760653653243936683_"  style="overflow:visible;"/>
	</clipPath>
	
		<circle style="clip-path:url(#SVGID_00000105411822055001136680000010593978631010634123_);fill:#FEE5D5;" cx="1131.7" cy="208" r="165.6"/>
	<path style="clip-path:url(#SVGID_00000105411822055001136680000010593978631010634123_);fill:#F9C7D6;" d="M1320.9,133.4
		c-23.7-32.3-74.3-27-115.6-22.7c-44.7,4.7-81.4,20.9-98.3,29.2c-45,22.2-47.6,37.4-73.4,38.9c-45,2.5-76-41.6-88.6-31.3
		c-8.7,7.1,1.3,32,3.2,36.7c18.5,46.1,70.8,60.6,74.5,61.6c25.8,6.8,46.9,2.7,77.8-3.2c50.6-9.7,51.7-22.7,77.8-20.5
		c40.5,3.3,47.7,35.5,84.2,33.5c31.5-1.7,51.6-27.1,54-30.2C1337.3,198.2,1338.8,157.9,1320.9,133.4z"/>
	<path style="clip-path:url(#SVGID_00000105411822055001136680000010593978631010634123_);fill:#F494B4;" d="M937.9,143.2
		c26.7-7.1,11.1,82.6,96.1,104.9c22.8,6,80.3-5.2,128.8-25.2c27.2-11.2,95,40.7,112.9,28.3c49.7-34.6,53,12.1,44.3,30.2
		c-6.3,13.2-40.3,31.2-117.4,32.4c-76.9,1.2-74.6,34.3-124.6,31.3c-63.2-3.8-109.9-68.9-137.2-100.4
		C900.1,197.6,915.5,149.1,937.9,143.2z"/>
</g>
<path class="st12" d="M1302.6,71.9c-8.4-3.4-19.3-7.7-30.2-8.6c-29.4-2.5-35.2,21.4-64.8,22.7c-25,1.1-31.9-15.6-50.8-9.7
	c-17,5.3-31.5,25-28.1,38.9c4.9,20.1,48.6,34.1,78.8,22.7c15-5.7,23.6-16.4,36.7-13c11.4,3,12.4,13.1,23.8,15.1
	c11.7,2.1,22.2-6.5,31.3-14c2.7-2.2,31.2-25.7,24.8-41C1322,79.6,1315.5,77.1,1302.6,71.9z"/>
<path class="st12" d="M1100.7,264c-8.4-3.4-19.3-7.7-30.2-8.6c-29.4-2.5-50,19.8-79.6,21.1c-25,1.1-34.5-14.9-53.4-9.1
	c-17,5.3-25.2,41.2-21.8,55.1c4.9,20.1,20.4,21.6,50.6,10.2c15-5.7,37.4-15,50-19.9c19.4-7.6,32.9-4.2,44.3-2.2
	c11.7,2.1,24.6,10.1,33.7,2.6c2.7-2.2,5.5-4.2,13.8-18.6C1128.2,259.8,1113.7,269.2,1100.7,264z"/>
<path class="st12" d="M1216.5,283c-8.4-3.4-19.3-7.7-30.2-8.6c-29.4-2.5-35.2,21.4-64.8,22.7c-25,1.1-31.9-15.6-50.8-9.7
	c-17,5.3-31.5,25-28.1,38.9c4.9,20.1,48.6,34.1,78.8,22.7c15-5.7,23.5-10.3,36.6-6.8c11.4,3,12.5,7,23.9,9
	c11.7,2.1,22.2-6.5,31.3-14c2.7-2.2,19.7-12.7,13.3-28.1C1224.5,303.7,1229.5,288.1,1216.5,283z"/>
<g>
	<defs>
		<circle id="SVGID_00000039134950103956493100000008480767759216005553_" cx="1572" cy="216" r="183.7"/>
	</defs>
	<clipPath id="SVGID_00000065790218146723928500000000995145714233950910_">
		<use xlink:href="#SVGID_00000039134950103956493100000008480767759216005553_"  style="overflow:visible;"/>
	</clipPath>
	
		<circle style="clip-path:url(#SVGID_00000065790218146723928500000000995145714233950910_);fill:#D7EFF3;" cx="1572" cy="216" r="183.7"/>
	<path style="clip-path:url(#SVGID_00000065790218146723928500000000995145714233950910_);fill:#919ACD;" d="M1393.1,158.2h344.3
		c6.6,0,12-5.4,12-12v-27.8c0-6.6-5.4-12-12-12h-344.3c-6.6,0-12,5.4-12,12v27.8C1381.1,152.8,1386.5,158.2,1393.1,158.2z"/>
	<path style="clip-path:url(#SVGID_00000065790218146723928500000000995145714233950910_);fill:#6568B0;" d="M1386.4,211.7h368.3
		c6.6,0,12-5.4,12-12v-31.2c0-6.6-5.4-12-12-12h-368.3c-6.6,0-12,5.4-12,12v31.2C1374.4,206.3,1379.8,211.7,1386.4,211.7z"/>
	<path style="clip-path:url(#SVGID_00000065790218146723928500000000995145714233950910_);fill:#BFB0D6;" d="M1385.3,312.6h373.3
		c6.6,0,12-5.4,12-12v-31.9c0-6.6-5.4-12-12-12h-373.3c-6.6,0-12,5.4-12,12v31.9C1373.3,307.2,1378.7,312.6,1385.3,312.6z"/>
	<path style="opacity:0.27;clip-path:url(#SVGID_00000065790218146723928500000000995145714233950910_);fill:#7F71B4;" d="
		M1560,397.4h-187.1c-6.6,0-12-5.4-12-12V12c0-6.6,5.4-12,12-12H1560c6.6,0,12,5.4,12,12v373.4C1572,392,1566.6,397.4,1560,397.4z"
		/>
</g>
<g>
	<defs>
		<circle id="SVGID_00000007395214784874103310000008553074907751460995_" cx="216" cy="654.4" r="139.2"/>
	</defs>
	<clipPath id="SVGID_00000057113652137813306080000016232130403830824835_">
		<use xlink:href="#SVGID_00000007395214784874103310000008553074907751460995_"  style="overflow:visible;"/>
	</clipPath>
	
		<circle style="clip-path:url(#SVGID_00000057113652137813306080000016232130403830824835_);fill:#FEF6AA;" cx="216" cy="654.4" r="139.2"/>
	<path style="clip-path:url(#SVGID_00000057113652137813306080000016232130403830824835_);fill:#FEE96C;" d="M337.6,556.2
		c-19.2-3.8-28.3,42.3-69.1,83.7c-47.1,47.8-128.9,81.4-199.8,85.3c-13.5,0.7-23.6,0.2-25.2,4.9c-5.3,15.2,79.9,81.7,175.5,73.9
		c17.4-1.4,52.3-4.7,85.3-29.2c64-47.6,68.6-136.4,52.8-188.5C353.6,574.6,348.4,558.4,337.6,556.2z"/>
	<path style="clip-path:url(#SVGID_00000057113652137813306080000016232130403830824835_);fill:#F7EC25;" d="M423.8,623.9
		c-12.8-7.4-37.1,12.6-76.9,45.5c-73.6,60.8-75.1,89.5-119.1,110.5c-64.3,30.5-131.2,2.6-132.1,8.7c-0.9,5.6,56.6,26.4,127.8,28.3
		c54.7,1.5,111.4,3,155.1-34.8C435.9,732.4,445.7,636.7,423.8,623.9z"/>
</g>
<path class="st21" d="M98,728.2c-13.8,14-36.1,43.1-16.6,78.8c9.4,17.3,43,15.4,53.5,10.4c99.5-47.3,220.1-154.7,234.1-233.3
	c3.9-22.1,11.8-45.9-3.9-68.9c-3.9-5.7-31-30.4-80.5,18"/>
<path class="st21" d="M76.8,650.1c-16.6-0.7-55.7,20.1-56.7,60.7c-0.5,19.7,29.6,34.9,41.1,35.8c109.8,8.8,267.9-23.9,319.4-85
	c14.5-17.2,33.2-33.9,31.1-61.6c-0.5-6.9-23.5-55.4-79-21.4"/>
<path class="st22" d="M845.8,503.8L548.9,633.9c-46.3,20.3-71.7,71.5-58.3,120.2c3,10.8,7.8,21.3,14.4,30.9c0.5,0.7,0.9,1.4,1.4,2
	c39.4,54.1,121.2,51,157.8-5C724.7,689.3,785.2,596.6,845.8,503.8z"/>
<circle class="st23" cx="582.6" cy="728.7" r="65.7"/>
<circle class="st24" cx="582.6" cy="728.7" r="51"/>
<linearGradient id="SVGID_00000039107055309713372130000016185182700890896062_" gradientUnits="userSpaceOnUse" x1="1003.5811" y1="575.4521" x2="1268.5092" y2="807.4758">
	<stop  offset="0.2473" style="stop-color:#7D0047"/>
	<stop  offset="0.5978" style="stop-color:#F49AC1"/>
</linearGradient>
<path style="fill:url(#SVGID_00000039107055309713372130000016185182700890896062_);stroke:#8C236C;stroke-width:3;stroke-miterlimit:10;" d="
	M971,521c-2.3,1.4,11,17.9,9,19.1c-2.9,1.8-46.4-41.8-40.7-35.6c1.4,1.4,34.9,35.6,24.1,41.4c-7.4,4-18.7-0.3-31.3-8.3
	c14.4,13.3,28.8,26.6,43.2,40c46.8,44,93.9,87.5,141.5,130.7c34.4,31.2,68.9,62.1,103.7,92.9c15.2,17.6,39.1,16.7,48.6,5.4
	c7-8.3,6.9-23.2-1.1-35.6c-36.7-28.8-73.4-57.6-110.2-86.4"/>
<line class="st26" x1="1177.6" y1="690.1" x2="1058.1" y2="588.8"/>
<line class="st26" x1="1158.9" y1="756.4" x2="1047.3" y2="652.7"/>
<path class="st27" d="M1576.8,482.1c-3,0.1,18.3,103.6-27.5,152.6c-52.9,56.7-178.2,28.6-178.2,29c0,0.4,116.5-20.2,175.3,37.7
	c50.8,50,34.8,153,38.8,152.6c4.3-0.5-17-110.3,27.8-156.9c43.6-45.4,159.8-32,159.8-34.2c0-2.1-109.8,22.9-158.4-22.3
	C1562,591.5,1579.9,482,1576.8,482.1z"/>
<path class="st28" d="M1575.3,540c-2,0.1,12.6,71.3-19,105.1c-36.4,39-122.7,19.7-122.7,20c0,0.3,80.2-13.9,120.7,25.9
	c35,34.4,23.9,105.4,26.8,105.1c3-0.3-11.7-76,19.1-108.1c30-31.2,110.1-22,110.1-23.5c0-1.5-75.7,15.8-109.1-15.4
	C1565.1,615.3,1577.4,539.9,1575.3,540z"/>
<circle class="st29" cx="212" cy="1120" r="79.7"/>
<circle class="st30" cx="212" cy="1120" r="56.2"/>
<path class="st31" d="M211.3,1010.6c-9,27-17.9,54.1-26.9,81.1c-28,9.4-56,18.9-84,28.3c28,8.8,56,17.6,84,26.4
	c8.8,27.7,17.6,55.4,26.4,83c8.6-28,17.3-56,25.9-84c29-8.6,57.9-17.3,86.9-25.9c-30.6-9.4-61.1-18.9-91.7-28.3
	C225.1,1064.3,218.2,1037.4,211.3,1010.6z"/>
<path class="st32" d="M637.6,1006.2c-9,27-11.9,62.3-20.8,89.3c-28,9.4-62.1,10.7-90.1,20.1c28,8.8,62.5,16.7,90.5,25.5
	c8.8,27.7,11.1,56.3,19.9,83.9c8.6-28,17.3-56,25.9-84c29-8.6,57.9-17.3,86.9-25.9c-30.6-9.4-59.4-10.7-89.9-20.1
	C653.1,1068.2,644.5,1033.1,637.6,1006.2z"/>
<path class="st33" d="M654.8,996.4c-9,27-11.9,62.3-20.8,89.3c-28,9.4-62.1,10.7-90.1,20.1c28,8.8,62.5,16.7,90.5,25.5
	c8.8,27.7,11.1,56.3,19.9,83.9c8.6-28,17.3-56,25.9-84c29-8.6,57.9-17.3,86.9-25.9c-30.6-9.4-59.4-10.7-89.9-20.1
	C670.3,1058.4,661.7,1023.3,654.8,996.4z"/>
</svg>
