<?xml version="1.0" encoding="utf-8"?>
<!-- Generator: Adobe Illustrator 27.0.0, SVG Export Plug-In . SVG Version: 6.00 Build 0)  -->
<svg version="1.1" id="Layer_1" xmlns="http://www.w3.org/2000/svg" xmlns:xlink="http://www.w3.org/1999/xlink" x="0px" y="0px"
	 viewBox="0 0 432 432" style="enable-background:new 0 0 432 432;" xml:space="preserve">
<style type="text/css">
	.st0{clip-path:url(#SVGID_00000145766515959308788930000011310914999373819046_);fill:#B1D67D;}
	.st1{clip-path:url(#SVGID_00000145766515959308788930000011310914999373819046_);fill:#86C878;}
	.st2{fill:#DAF0F6;}
	.st3{fill:#EEF8FB;}
	.st4{clip-path:url(#SVGID_00000114790585033149657240000012004713831610101638_);fill:#ADC9EA;}
	.st5{clip-path:url(#SVGID_00000114790585033149657240000012004713831610101638_);fill:#EDC5DD;}
	.st6{clip-path:url(#SVGID_00000114790585033149657240000012004713831610101638_);fill:#DDD0E7;}
	.st7{clip-path:url(#SVGID_00000114790585033149657240000012004713831610101638_);fill:#C5B5D9;}
	.st8{clip-path:url(#SVGID_00000114790585033149657240000012004713831610101638_);fill:#ABA6D2;}
	.st9{clip-path:url(#SVGID_00000067211970039443895160000003060920446520781699_);fill:#FEE5D5;}
	.st10{clip-path:url(#SVGID_00000067211970039443895160000003060920446520781699_);fill:#F9C7D6;}
	.st11{clip-path:url(#SVGID_00000067211970039443895160000003060920446520781699_);fill:#F494B4;}
	.st12{fill:#FCE8F1;}
	.st13{clip-path:url(#SVGID_00000165926916743298053670000014696606352120979123_);fill:#D7EFF3;}
	.st14{clip-path:url(#SVGID_00000165926916743298053670000014696606352120979123_);fill:#919ACD;}
	.st15{clip-path:url(#SVGID_00000165926916743298053670000014696606352120979123_);fill:#6568B0;}
	.st16{clip-path:url(#SVGID_00000165926916743298053670000014696606352120979123_);fill:#BFB0D6;}
	.st17{opacity:0.27;clip-path:url(#SVGID_00000165926916743298053670000014696606352120979123_);fill:#7F71B4;}
	.st18{clip-path:url(#SVGID_00000096042101503222851730000000250928672023794367_);fill:#FEF6AA;}
	.st19{clip-path:url(#SVGID_00000096042101503222851730000000250928672023794367_);fill:#FEE96C;}
	.st20{clip-path:url(#SVGID_00000096042101503222851730000000250928672023794367_);fill:#F7EC25;}
	.st21{fill:none;stroke:#FBBB1C;stroke-width:14;stroke-miterlimit:10;}
	.st22{fill:#91B4DF;stroke:#DAEEE7;stroke-width:15.4458;stroke-miterlimit:10;}
	.st23{fill:#A6C0E4;}
	.st24{fill:#BCE4EA;}
	.st25{fill:url(#SVGID_00000141420566821219184590000013989343879895775154_);stroke:#8C236C;stroke-width:3;stroke-miterlimit:10;}
	.st26{fill:none;stroke:#8C236C;stroke-width:3;stroke-miterlimit:10;}
	.st27{fill:#FDF9D2;stroke:#FCF6AF;stroke-width:0.9238;stroke-miterlimit:10;}
	.st28{fill:#B6DA9D;stroke:#BDE2D6;stroke-width:2.7715;stroke-miterlimit:10;}
	.st29{fill:#DFF2F3;}
	.st30{fill:#F3F7E2;}
	.st31{fill:#FFF7B6;stroke:#FCF6AF;stroke-miterlimit:10;}
	.st32{fill:#F9C2D2;}
	.st33{fill:#FCE2EB;}
</style>
<g>
	<defs>
		<circle id="SVGID_1_" cx="-1140" cy="216" r="184.1"/>
	</defs>
	<clipPath id="SVGID_00000094611905595006633700000006882362751594535058_">
		<use xlink:href="#SVGID_1_"  style="overflow:visible;"/>
	</clipPath>
	
		<circle style="clip-path:url(#SVGID_00000094611905595006633700000006882362751594535058_);fill:#B1D67D;" cx="-1140" cy="216" r="184.1"/>
	<path style="clip-path:url(#SVGID_00000094611905595006633700000006882362751594535058_);fill:#86C878;" d="M-1047.3,121.3h-158.9
		c-6.6,0-12-5.4-12-12v-12c0-6.6,5.4-12,12-12h158.9c6.6,0,12,5.4,12,12v12C-1035.3,115.9-1040.7,121.3-1047.3,121.3z"/>
	<path style="clip-path:url(#SVGID_00000094611905595006633700000006882362751594535058_);fill:#86C878;" d="M-1316.4,420.1h145.9
		c6.6,0,12-5.4,12-12V28.2c0-6.6-5.4-12-12-12h-145.9c-6.6,0-12,5.4-12,12v379.9C-1328.4,414.7-1323,420.1-1316.4,420.1z"/>
	<path style="clip-path:url(#SVGID_00000094611905595006633700000006882362751594535058_);fill:#86C878;" d="M-999.8,177.1h-158.9
		c-6.6,0-12-5.4-12-12v-12c0-6.6,5.4-12,12-12h158.9c6.6,0,12,5.4,12,12v12C-987.8,171.7-993.2,177.1-999.8,177.1z"/>
	<path style="clip-path:url(#SVGID_00000094611905595006633700000006882362751594535058_);fill:#86C878;" d="M-927.4,356.6h-158.9
		c-6.6,0-12-5.4-12-12v-12c0-6.6,5.4-12,12-12h158.9c6.6,0,12,5.4,12,12v12C-915.4,351.2-920.8,356.6-927.4,356.6z"/>
</g>
<circle class="st2" cx="-688" cy="216" r="209"/>
<circle class="st3" cx="-688" cy="216" r="174.2"/>
<g>
	<defs>
		<circle id="SVGID_00000034781669167299620940000001785637721057965232_" cx="-688" cy="216" r="143.5"/>
	</defs>
	<clipPath id="SVGID_00000134963886153248580430000000270146422548540821_">
		<use xlink:href="#SVGID_00000034781669167299620940000001785637721057965232_"  style="overflow:visible;"/>
	</clipPath>
	
		<circle style="clip-path:url(#SVGID_00000134963886153248580430000000270146422548540821_);fill:#ADC9EA;" cx="-687.7" cy="216.4" r="143.5"/>
	<path style="clip-path:url(#SVGID_00000134963886153248580430000000270146422548540821_);fill:#EDC5DD;" d="M-733,117.7h180.7
		c6.6,0,12,5.4,12,12v8.1c0,6.6-5.4,12-12,12H-733c-6.6,0-12-5.4-12-12v-8.1C-745,123.1-739.6,117.7-733,117.7z"/>
	<path style="clip-path:url(#SVGID_00000134963886153248580430000000270146422548540821_);fill:#DDD0E7;" d="M-819.2,158.8h273.7
		c6.6,0,12,5.4,12,12v8.1c0,6.6-5.4,12-12,12h-273.7c-6.6,0-12-5.4-12-12v-8.1C-831.2,164.2-825.8,158.8-819.2,158.8z"/>
	<path style="clip-path:url(#SVGID_00000134963886153248580430000000270146422548540821_);fill:#C5B5D9;" d="M-663.9,303.9h-155.3
		c-6.6,0-12-5.4-12-12V283c0-6.6,5.4-12,12-12h155.3c6.6,0,12,5.4,12,12v8.9C-651.9,298.5-657.3,303.9-663.9,303.9z"/>
	<path style="clip-path:url(#SVGID_00000134963886153248580430000000270146422548540821_);fill:#ABA6D2;" d="M-590,344.8h-209.4
		c-6.6,0-12-5.4-12-12v-8.9c0-6.6,5.4-12,12-12H-590c6.6,0,12,5.4,12,12v8.9C-578,339.4-583.4,344.8-590,344.8z"/>
</g>
<g>
	<defs>
		<circle id="SVGID_00000041260494515891433870000010587862554426404266_" cx="-224.1" cy="207.4" r="165.6"/>
	</defs>
	<clipPath id="SVGID_00000090287261717036944480000005493172348148446095_">
		<use xlink:href="#SVGID_00000041260494515891433870000010587862554426404266_"  style="overflow:visible;"/>
	</clipPath>
	
		<circle style="clip-path:url(#SVGID_00000090287261717036944480000005493172348148446095_);fill:#FEE5D5;" cx="-224.3" cy="208" r="165.6"/>
	<path style="clip-path:url(#SVGID_00000090287261717036944480000005493172348148446095_);fill:#F9C7D6;" d="M-35.1,133.4
		c-23.7-32.3-74.3-27-115.6-22.7c-44.7,4.7-81.4,20.9-98.3,29.2c-45,22.2-47.6,37.4-73.4,38.9c-45,2.5-76-41.6-88.6-31.3
		c-8.7,7.1,1.3,32,3.2,36.7c18.5,46.1,70.8,60.6,74.5,61.6c25.8,6.8,46.9,2.7,77.8-3.2c50.6-9.7,51.7-22.7,77.8-20.5
		c40.5,3.3,47.7,35.5,84.2,33.5c31.5-1.7,51.6-27.1,54-30.2C-18.7,198.2-17.2,157.9-35.1,133.4z"/>
	<path style="clip-path:url(#SVGID_00000090287261717036944480000005493172348148446095_);fill:#F494B4;" d="M-418.1,143.2
		c26.7-7.1,11.1,82.6,96.1,104.9c22.8,6,80.3-5.2,128.8-25.2c27.2-11.2,95,40.7,112.9,28.3c49.7-34.6,53,12.1,44.3,30.2
		c-6.3,13.2-40.3,31.2-117.4,32.4c-76.9,1.2-74.6,34.3-124.6,31.3c-63.2-3.8-109.9-68.9-137.2-100.4
		C-455.9,197.6-440.5,149.1-418.1,143.2z"/>
</g>
<path class="st12" d="M-53.4,71.9c-8.4-3.4-19.3-7.7-30.2-8.6c-29.4-2.5-35.2,21.4-64.8,22.7c-25,1.1-31.9-15.6-50.8-9.7
	c-17,5.3-31.5,25-28.1,38.9c4.9,20.1,48.6,34.1,78.8,22.7c15-5.7,23.6-16.4,36.7-13c11.4,3,12.4,13.1,23.8,15.1
	c11.7,2.1,22.2-6.5,31.3-14c2.7-2.2,31.2-25.7,24.8-41C-34,79.6-40.5,77.1-53.4,71.9z"/>
<path class="st12" d="M-255.3,264c-8.4-3.4-19.3-7.7-30.2-8.6c-29.4-2.5-50,19.8-79.6,21.1c-25,1.1-34.5-14.9-53.4-9.1
	c-17,5.3-25.2,41.2-21.8,55.1c4.9,20.1,20.4,21.6,50.6,10.2c15-5.7,37.4-15,50-19.9c19.4-7.6,32.9-4.2,44.3-2.2
	c11.7,2.1,24.6,10.1,33.7,2.6c2.7-2.2,5.5-4.2,13.8-18.6C-227.8,259.8-242.3,269.2-255.3,264z"/>
<path class="st12" d="M-139.5,283c-8.4-3.4-19.3-7.7-30.2-8.6c-29.4-2.5-35.2,21.4-64.8,22.7c-25,1.1-31.9-15.6-50.8-9.7
	c-17,5.3-31.5,25-28.1,38.9c4.9,20.1,48.6,34.1,78.8,22.7c15-5.7,23.5-10.3,36.6-6.8c11.4,3,12.5,7,23.9,9
	c11.7,2.1,22.2-6.5,31.3-14c2.7-2.2,19.7-12.7,13.3-28.1C-131.5,303.7-126.5,288.1-139.5,283z"/>
<g>
	<defs>
		<circle id="SVGID_00000054976584781292623780000007338787706599645577_" cx="216" cy="216" r="183.7"/>
	</defs>
	<clipPath id="SVGID_00000090287626646218876060000012503807478790990748_">
		<use xlink:href="#SVGID_00000054976584781292623780000007338787706599645577_"  style="overflow:visible;"/>
	</clipPath>
	
		<circle style="clip-path:url(#SVGID_00000090287626646218876060000012503807478790990748_);fill:#D7EFF3;" cx="216" cy="216" r="183.7"/>
	<path style="clip-path:url(#SVGID_00000090287626646218876060000012503807478790990748_);fill:#919ACD;" d="M37.1,158.2h344.3
		c6.6,0,12-5.4,12-12v-27.8c0-6.6-5.4-12-12-12H37.1c-6.6,0-12,5.4-12,12v27.8C25.1,152.8,30.5,158.2,37.1,158.2z"/>
	<path style="clip-path:url(#SVGID_00000090287626646218876060000012503807478790990748_);fill:#6568B0;" d="M30.4,211.7h368.3
		c6.6,0,12-5.4,12-12v-31.2c0-6.6-5.4-12-12-12H30.4c-6.6,0-12,5.4-12,12v31.2C18.4,206.3,23.8,211.7,30.4,211.7z"/>
	<path style="clip-path:url(#SVGID_00000090287626646218876060000012503807478790990748_);fill:#BFB0D6;" d="M29.3,312.6h373.3
		c6.6,0,12-5.4,12-12v-31.9c0-6.6-5.4-12-12-12H29.3c-6.6,0-12,5.4-12,12v31.9C17.3,307.2,22.7,312.6,29.3,312.6z"/>
	<path style="opacity:0.27;clip-path:url(#SVGID_00000090287626646218876060000012503807478790990748_);fill:#7F71B4;" d="
		M204,397.4H16.9c-6.6,0-12-5.4-12-12V12c0-6.6,5.4-12,12-12H204c6.6,0,12,5.4,12,12v373.4C216,392,210.6,397.4,204,397.4z"/>
</g>
<g>
	<defs>
		<circle id="SVGID_00000169518191975366575610000010663724361829689276_" cx="-1140" cy="654.4" r="139.2"/>
	</defs>
	<clipPath id="SVGID_00000078043985248589768090000014469009281405806722_">
		<use xlink:href="#SVGID_00000169518191975366575610000010663724361829689276_"  style="overflow:visible;"/>
	</clipPath>
	
		<circle style="clip-path:url(#SVGID_00000078043985248589768090000014469009281405806722_);fill:#FEF6AA;" cx="-1140" cy="654.4" r="139.2"/>
	<path style="clip-path:url(#SVGID_00000078043985248589768090000014469009281405806722_);fill:#FEE96C;" d="M-1018.4,556.2
		c-19.2-3.8-28.3,42.3-69.1,83.7c-47.1,47.8-128.9,81.4-199.8,85.3c-13.5,0.7-23.6,0.2-25.2,4.9c-5.3,15.2,79.9,81.7,175.5,73.9
		c17.4-1.4,52.3-4.7,85.3-29.2c64-47.6,68.6-136.4,52.8-188.5C-1002.4,574.6-1007.6,558.4-1018.4,556.2z"/>
	<path style="clip-path:url(#SVGID_00000078043985248589768090000014469009281405806722_);fill:#F7EC25;" d="M-932.2,623.9
		c-12.8-7.4-37.1,12.6-76.9,45.5c-73.6,60.8-75.1,89.5-119.1,110.5c-64.3,30.5-131.2,2.6-132.1,8.7c-0.9,5.6,56.6,26.4,127.8,28.3
		c54.7,1.5,111.4,3,155.1-34.8C-920.1,732.4-910.3,636.7-932.2,623.9z"/>
</g>
<path class="st21" d="M-1258,728.2c-13.8,14-36.1,43.1-16.6,78.8c9.4,17.3,43,15.4,53.5,10.4c99.5-47.3,220.1-154.7,234.1-233.3
	c3.9-22.1,11.8-45.9-3.9-68.9c-3.9-5.7-31-30.4-80.5,18"/>
<path class="st21" d="M-1279.2,650.1c-16.6-0.7-55.7,20.1-56.7,60.7c-0.5,19.7,29.6,34.9,41.1,35.8c109.8,8.8,267.9-23.9,319.4-85
	c14.5-17.2,33.2-33.9,31.1-61.6c-0.5-6.9-23.5-55.4-79-21.4"/>
<path class="st22" d="M-510.2,503.8l-296.9,130.1c-46.3,20.3-71.7,71.5-58.3,120.2c3,10.8,7.8,21.3,14.4,30.9c0.5,0.7,0.9,1.4,1.4,2
	c39.4,54.1,121.2,51,157.8-5C-631.3,689.3-570.8,596.6-510.2,503.8z"/>
<circle class="st23" cx="-773.4" cy="728.7" r="65.7"/>
<circle class="st24" cx="-773.4" cy="728.7" r="51"/>
<linearGradient id="SVGID_00000179604919925103160820000004874943549002333829_" gradientUnits="userSpaceOnUse" x1="-352.4189" y1="575.4521" x2="-87.4909" y2="807.4758">
	<stop  offset="0.2473" style="stop-color:#7D0047"/>
	<stop  offset="0.5978" style="stop-color:#F49AC1"/>
</linearGradient>
<path style="fill:url(#SVGID_00000179604919925103160820000004874943549002333829_);stroke:#8C236C;stroke-width:3;stroke-miterlimit:10;" d="
	M-385,521c-2.3,1.4,11,17.9,9,19.1c-2.9,1.8-46.4-41.8-40.7-35.6c1.4,1.4,34.9,35.6,24.1,41.4c-7.4,4-18.7-0.3-31.3-8.3
	c14.4,13.3,28.8,26.6,43.2,40c46.8,44,93.9,87.5,141.5,130.7c34.4,31.2,68.9,62.1,103.7,92.9c15.2,17.6,39.1,16.7,48.6,5.4
	c7-8.3,6.9-23.2-1.1-35.6c-36.7-28.8-73.4-57.6-110.2-86.4"/>
<line class="st26" x1="-178.4" y1="690.1" x2="-297.9" y2="588.8"/>
<line class="st26" x1="-197.1" y1="756.4" x2="-308.7" y2="652.7"/>
<path class="st27" d="M220.8,482.1c-3,0.1,18.3,103.6-27.5,152.6c-52.9,56.7-178.2,28.6-178.2,29c0,0.4,116.5-20.2,175.3,37.7
	c50.8,50,34.8,153,38.8,152.6c4.3-0.5-17-110.3,27.8-156.9c43.6-45.4,159.8-32,159.8-34.2c0-2.1-109.8,22.9-158.4-22.3
	C206,591.5,223.9,482,220.8,482.1z"/>
<path class="st28" d="M219.3,540c-2,0.1,12.6,71.3-19,105.1c-36.4,39-122.7,19.7-122.7,20c0,0.3,80.2-13.9,120.7,25.9
	c35,34.4,23.9,105.4,26.8,105.1c3-0.3-11.7-76,19.1-108.1c30-31.2,110.1-22,110.1-23.5c0-1.5-75.7,15.8-109.1-15.4
	C209.1,615.3,221.4,539.9,219.3,540z"/>
<circle class="st29" cx="-1144" cy="1120" r="79.7"/>
<circle class="st30" cx="-1144" cy="1120" r="56.2"/>
<path class="st31" d="M-1144.7,1010.6c-9,27-17.9,54.1-26.9,81.1c-28,9.4-56,18.9-84,28.3c28,8.8,56,17.6,84,26.4
	c8.8,27.7,17.6,55.4,26.4,83c8.6-28,17.3-56,25.9-84c29-8.6,57.9-17.3,86.9-25.9c-30.6-9.4-61.1-18.9-91.7-28.3
	C-1130.9,1064.3-1137.8,1037.4-1144.7,1010.6z"/>
<path class="st32" d="M-718.4,1006.2c-9,27-11.9,62.3-20.8,89.3c-28,9.4-62.1,10.7-90.1,20.1c28,8.8,62.5,16.7,90.5,25.5
	c8.8,27.7,11.1,56.3,19.9,83.9c8.6-28,17.3-56,25.9-84c29-8.6,57.9-17.3,86.9-25.9c-30.6-9.4-59.4-10.7-89.9-20.1
	C-702.9,1068.2-711.5,1033.1-718.4,1006.2z"/>
<path class="st33" d="M-701.2,996.4c-9,27-11.9,62.3-20.8,89.3c-28,9.4-62.1,10.7-90.1,20.1c28,8.8,62.5,16.7,90.5,25.5
	c8.8,27.7,11.1,56.3,19.9,83.9c8.6-28,17.3-56,25.9-84c29-8.6,57.9-17.3,86.9-25.9c-30.6-9.4-59.4-10.7-89.9-20.1
	C-685.7,1058.4-694.3,1023.3-701.2,996.4z"/>
</svg>
