<?xml version="1.0" encoding="utf-8"?>
<!-- Generator: Adobe Illustrator 27.0.0, SVG Export Plug-In . SVG Version: 6.00 Build 0)  -->
<svg version="1.1" id="Layer_1" xmlns="http://www.w3.org/2000/svg" xmlns:xlink="http://www.w3.org/1999/xlink" x="0px" y="0px"
	 viewBox="0 0 430 140" style="enable-background:new 0 0 430 140;" xml:space="preserve">
<style type="text/css">
	.st0{fill:#BFC0DF;stroke:#DEF1EF;stroke-miterlimit:10;}
	.st1{fill:#B5E3F3;stroke:#DEF1EF;stroke-miterlimit:10;}
	.st2{fill:none;stroke:#DEF1EF;stroke-miterlimit:10;}
	.st3{fill:#FADAC5;stroke:#DEF1EF;stroke-miterlimit:10;}
	.st4{fill:#F2FFC1;stroke:#DEF1EF;stroke-miterlimit:10;}
	.st5{fill:#F7D0FF;stroke:#DEF1EF;stroke-miterlimit:10;}
</style>
<path class="st0" d="M31.2,48H20.8c-6.6,0-12-5.4-12-12V25.6c0-6.6,5.4-12,12-12h10.4c6.6,0,12,5.4,12,12V36
	C43.2,42.6,37.8,48,31.2,48z"/>
<path class="st1" d="M43.5,87.2H33c-6.6,0-12-5.4-12-12V64.8c0-6.6,5.4-12,12-12h10.4c6.6,0,12,5.4,12,12v10.4
	C55.5,81.8,50.1,87.2,43.5,87.2z"/>
<path class="st2" d="M65.6,127.8H55.2c-6.6,0-12-5.4-12-12v-10.4c0-6.6,5.4-12,12-12h10.4c6.6,0,12,5.4,12,12v10.4
	C77.6,122.4,72.2,127.8,65.6,127.8z"/>
<path class="st0" d="M73.2,48H62.8c-6.6,0-12-5.4-12-12V25.6c0-6.6,5.4-12,12-12h10.4c6.6,0,12,5.4,12,12V36
	C85.2,42.6,79.8,48,73.2,48z"/>
<path class="st0" d="M115.2,46.7h-10.4c-6.6,0-12-5.4-12-12V24.2c0-6.6,5.4-12,12-12h10.4c6.6,0,12,5.4,12,12v10.4
	C127.2,41.3,121.8,46.7,115.2,46.7z"/>
<path class="st0" d="M157.2,46.7h-10.4c-6.6,0-12-5.4-12-12V24.2c0-6.6,5.4-12,12-12h10.4c6.6,0,12,5.4,12,12v10.4
	C169.2,41.3,163.8,46.7,157.2,46.7z"/>
<path class="st0" d="M199.2,46.7h-10.4c-6.6,0-12-5.4-12-12V24.2c0-6.6,5.4-12,12-12h10.4c6.6,0,12,5.4,12,12v10.4
	C211.2,41.3,205.8,46.7,199.2,46.7z"/>
<path class="st0" d="M241.2,46.7h-10.4c-6.6,0-12-5.4-12-12V24.2c0-6.6,5.4-12,12-12h10.4c6.6,0,12,5.4,12,12v10.4
	C253.2,41.3,247.8,46.7,241.2,46.7z"/>
<path class="st0" d="M283.2,45.3h-10.4c-6.6,0-12-5.4-12-12V22.9c0-6.6,5.4-12,12-12h10.4c6.6,0,12,5.4,12,12v10.4
	C295.2,39.9,289.8,45.3,283.2,45.3z"/>
<path class="st1" d="M325.2,45.3h-10.4c-6.6,0-12-5.4-12-12V22.9c0-6.6,5.4-12,12-12h10.4c6.6,0,12,5.4,12,12v10.4
	C337.2,39.9,331.8,45.3,325.2,45.3z"/>
<path class="st1" d="M367.2,46.7h-10.4c-6.6,0-12-5.4-12-12V24.2c0-6.6,5.4-12,12-12h10.4c6.6,0,12,5.4,12,12v10.4
	C379.2,41.3,373.8,46.7,367.2,46.7z"/>
<path class="st1" d="M409.2,46.7h-10.4c-6.6,0-12-5.4-12-12V24.2c0-6.6,5.4-12,12-12h10.4c6.6,0,12,5.4,12,12v10.4
	C421.2,41.3,415.8,46.7,409.2,46.7z"/>
<path class="st3" d="M85.5,88.6H75c-6.6,0-12-5.4-12-12V66.2c0-6.6,5.4-12,12-12h10.4c6.6,0,12,5.4,12,12v10.4
	C97.5,83.2,92.1,88.6,85.5,88.6z"/>
<path class="st3" d="M127.5,87.2H117c-6.6,0-12-5.4-12-12V64.8c0-6.6,5.4-12,12-12h10.4c6.6,0,12,5.4,12,12v10.4
	C139.5,81.8,134.1,87.2,127.5,87.2z"/>
<path class="st3" d="M169.5,87.2h-10.4c-6.6,0-12-5.4-12-12V64.8c0-6.6,5.4-12,12-12h10.4c6.6,0,12,5.4,12,12v10.4
	C181.5,81.8,176.1,87.2,169.5,87.2z"/>
<path class="st4" d="M211.5,87.2h-10.4c-6.6,0-12-5.4-12-12V64.8c0-6.6,5.4-12,12-12h10.4c6.6,0,12,5.4,12,12v10.4
	C223.5,81.8,218.1,87.2,211.5,87.2z"/>
<path class="st4" d="M253.5,87.2h-10.4c-6.6,0-12-5.4-12-12V64.8c0-6.6,5.4-12,12-12h10.4c6.6,0,12,5.4,12,12v10.4
	C265.5,81.8,260.1,87.2,253.5,87.2z"/>
<path class="st5" d="M295.5,85.8h-10.4c-6.6,0-12-5.4-12-12V63.4c0-6.6,5.4-12,12-12h10.4c6.6,0,12,5.4,12,12v10.4
	C307.5,80.4,302.1,85.8,295.5,85.8z"/>
<path class="st5" d="M337.5,85.8h-10.4c-6.6,0-12-5.4-12-12V63.4c0-6.6,5.4-12,12-12h10.4c6.6,0,12,5.4,12,12v10.4
	C349.5,80.4,344.1,85.8,337.5,85.8z"/>
<path class="st5" d="M379.5,87.2h-10.4c-6.6,0-12-5.4-12-12V64.8c0-6.6,5.4-12,12-12h10.4c6.6,0,12,5.4,12,12v10.4
	C391.5,81.8,386.1,87.2,379.5,87.2z"/>
<path class="st2" d="M107.6,129.1H97.2c-6.6,0-12-5.4-12-12v-10.4c0-6.6,5.4-12,12-12h10.4c6.6,0,12,5.4,12,12v10.4
	C119.6,123.7,114.2,129.1,107.6,129.1z"/>
<path class="st2" d="M149.6,127.8h-10.4c-6.6,0-12-5.4-12-12v-10.4c0-6.6,5.4-12,12-12h10.4c6.6,0,12,5.4,12,12v10.4
	C161.6,122.4,156.2,127.8,149.6,127.8z"/>
<path class="st2" d="M191.6,127.8h-10.4c-6.6,0-12-5.4-12-12v-10.4c0-6.6,5.4-12,12-12h10.4c6.6,0,12,5.4,12,12v10.4
	C203.6,122.4,198.2,127.8,191.6,127.8z"/>
<path class="st2" d="M233.6,127.8h-10.4c-6.6,0-12-5.4-12-12v-10.4c0-6.6,5.4-12,12-12h10.4c6.6,0,12,5.4,12,12v10.4
	C245.6,122.4,240.2,127.8,233.6,127.8z"/>
<path class="st2" d="M275.6,127.8h-10.4c-6.6,0-12-5.4-12-12v-10.4c0-6.6,5.4-12,12-12h10.4c6.6,0,12,5.4,12,12v10.4
	C287.6,122.4,282.2,127.8,275.6,127.8z"/>
<path class="st2" d="M317.6,126.4h-10.4c-6.6,0-12-5.4-12-12V104c0-6.6,5.4-12,12-12h10.4c6.6,0,12,5.4,12,12v10.4
	C329.6,121,324.2,126.4,317.6,126.4z"/>
</svg>
