<?xml version="1.0" encoding="utf-8"?>
<!-- Generator: Adobe Illustrator 27.0.0, SVG Export Plug-In . SVG Version: 6.00 Build 0)  -->
<svg version="1.1" id="Layer_1" xmlns="http://www.w3.org/2000/svg" xmlns:xlink="http://www.w3.org/1999/xlink" x="0px" y="0px"
	 viewBox="0 0 432 432" style="enable-background:new 0 0 432 432;" xml:space="preserve">
<style type="text/css">
	.st0{fill:#D1E9D1;}
	.st1{fill:#7D93A4;stroke:#7D93A4;stroke-width:4;stroke-miterlimit:10;}
</style>
<circle class="st0" cx="194.4" cy="285.2" r="118.9"/>
<g>
	<g>
		<path class="st1" d="M59.5,279.4c-20.4,17.3-42.2,41.1-40.1,69.9c1.5,19.6,11.3,42.2,27.8,53.5c18.6,12.7,43.6,14.5,65.4,13.6
			c15.1-0.6,30.4-2.5,45-6.6c39.4-11.1,78.6-27.7,111.5-52.2c36.2-27.1,67-67.1,64.9-114.4c-1.4-33.3-6.2-66.6-10.1-99.7
			c-3.1-25.9-6.4-51.8-10-77.7c-2.3-16.6-4.7-33.1-7.2-49.6c-4.7,3.6-9.4,7.3-14.2,10.9c28.2,20.4,56.5,40.7,84.7,61.1
			c4.3,3.1,10.7,0.7,13.2-3.5c2.9-4.8,0.7-10.2-3.5-13.2c-28.2-20.4-56.5-40.7-84.7-61.1c-7.7-5.5-15.3,3.6-14.2,10.9
			c9.8,64.9,18.1,130,24.4,195.3c1.1,11.4,2.4,22.9,2.3,34.4c0,1.9-0.1,3.7-0.2,5.5c-0.1,0.8-0.2,1.7-0.2,2.5
			c-0.3,2.7,0.4-2-0.1,0.6c-0.8,4.4-1.8,8.8-3.2,13.1c-6.6,21.6-20.2,40.1-36.5,55.4c-29.9,27.9-68.7,46.1-107.3,58.6
			c-29.1,9.5-59.4,14.9-90.2,7.8c-9.7-2.3-20-6.1-26.4-14.3c-5.5-7-8.6-15.7-10.7-23.9c-2.2-8.4-2-17,1.7-25.9
			c6.2-15.1,19.2-27.1,31.4-37.5C82.6,285,68.9,271.4,59.5,279.4L59.5,279.4z"/>
	</g>
</g>
</svg>
